<?xml version="1.0" encoding="UTF-8"?>
<svg id="Layer_1" xmlns="http://www.w3.org/2000/svg" version="1.1" viewBox="0 0 595.3 841.9">
  <!-- Generator: Adobe Illustrator 29.0.1, SVG Export Plug-In . SVG Version: 2.1.0 Build 192)  -->
  <defs>
    <style>
      .st0 {
        fill: red;
      }
    </style>
  </defs>
  <path style="fill: white" class="st0" d="M374.6,461.8c-3-.1-12.8,2.1-13.5,1.6-2.9-1.8-9.1-18-9.1-22s6.2-20.1,9.1-22c.5-.3,9.7,1.7,12.5,1.6,28.7-.9,40.5-37.6,17.8-54.6-22.1-16.6-51.5.6-49.2,28.1.2,2.3,2.7,6.4.9,8.1-2.9,2.6-17.5,8.5-21.5,8.5s-21.2-7.1-22.4-9.2c-.4-.7,1.6-5.7,1.8-7.4,3.3-37-46.1-47.1-58.8-15.7-8.7,21.7,8,44.1,31.4,42.2,2.2-.2,7.3-2.3,8.5-1.5,2.5,1.6,9.1,18.3,9.1,22s-6.5,20.4-9.1,22c-.6.3-9.7-1.7-12.5-1.6-25.7.8-38.8,30.8-22.4,50.3,17.4,20.8,52.5,9.4,54-17.9.2-3.1-2-12.9-1.6-13.5,1.6-2.5,18.4-9,22.1-9,3.8,0,21,6.7,22.4,9.2.3.5-2,8.4-2,11.3,0,26.1,30.5,40,50.5,23.4,20.8-17.3,9.3-52.5-17.9-53.8ZM291.1,394.2c-3.7,3.8-13.5-19.4-25.9-12.4-6.5,3.7-5.9,10.5-2.1,15.8,2.2,3.1,11,9.6,12,12,.9,2-1.4,1.4-2.5,1.5-18.2,1.3-30.1-20.4-17.5-34.4,13.9-15.4,38.6-2.2,36,17.4ZM290.8,496c-2.9,15.1-22.4,22.3-34.3,11.7-15.3-13.7-2.2-38.5,17.5-35.8,3.8,3.7-19.5,13.4-12.4,25.8,2,3.5,6.7,5.6,10.7,4.9,6.6-1.2,13-13,17.2-13.8,2.7-.5,1.5,5.9,1.3,7.2ZM352.3,386.9c2.9-15.2,22.3-22.4,34.3-11.7,15.3,13.7,2.2,38.5-17.5,35.8-3.8-3.7,19.5-13.4,12.4-25.8-2-3.5-6.7-5.6-10.7-4.9-6.6,1.2-13,13-17.2,13.8-2.7.5-1.5-5.9-1.3-7.2ZM388.1,506.2c-13.8,15.3-38.7,2.2-36-17.4,3.7-3.8,13.5,19.4,25.9,12.4,6.5-3.7,5.9-10.5,2.1-15.8-2.2-3.1-11-9.6-12-12-.9-2,1.4-1.4,2.5-1.5,18.2-1.3,30.1,20.4,17.5,34.4Z"/>
</svg>