<svg width="2759" height="1105" viewBox="0 0 2759 1105" fill="none" xmlns="http://www.w3.org/2000/svg">
<g filter="url(#filter0_d_30_978)">
<path d="M1364.15 264.852C1363.03 263.742 1360.03 261.576 1355.1 258.467C1350.18 255.358 1343.96 252.026 1336.57 248.639C1329.13 245.196 1321.04 242.198 1312.26 239.644C1303.48 237.09 1294.64 235.813 1285.86 235.813C1274.29 235.813 1265.45 237.923 1259.24 242.198C1253.08 246.474 1249.97 252.748 1249.97 261.021C1249.97 266.13 1251.37 270.405 1254.1 273.847C1256.83 277.29 1260.74 280.344 1265.83 283.064C1270.91 285.785 1277.23 288.284 1284.79 290.56C1292.34 292.837 1301.07 295.391 1310.97 298.278C1325.01 302.276 1337.64 306.607 1348.89 311.327C1360.14 316.046 1369.78 321.876 1377.76 328.872C1385.74 335.868 1391.84 344.364 1396.13 354.303C1400.41 364.297 1402.5 376.235 1402.5 390.227C1402.5 407.329 1399.39 421.821 1393.24 433.648C1387.08 445.474 1378.88 455.025 1368.71 462.298C1358.53 469.572 1346.8 474.847 1333.47 478.123C1320.13 481.399 1306.48 483.065 1292.44 483.065C1281.73 483.065 1270.81 482.232 1259.67 480.51C1248.53 478.789 1237.6 476.291 1226.89 473.015C1216.18 469.739 1205.74 465.797 1195.56 461.243C1185.39 456.69 1176.02 451.415 1167.5 445.419L1197.17 384.286C1198.56 385.73 1202.26 388.45 1208.31 392.393C1214.36 396.39 1221.75 400.388 1230.59 404.386C1239.37 408.384 1249.28 411.937 1260.26 415.047C1271.24 418.212 1282.38 419.766 1293.68 419.766C1317.62 419.766 1329.56 412.215 1329.56 397.112C1329.56 391.393 1327.79 386.729 1324.2 383.009C1320.61 379.289 1315.69 375.957 1309.37 372.959C1303.05 369.961 1295.6 367.184 1287.09 364.63C1278.57 362.076 1269.2 359.245 1259.03 356.08C1245.53 351.804 1233.86 347.196 1224 342.198C1214.09 337.201 1205.85 331.427 1199.26 324.875C1192.67 318.323 1187.8 310.771 1184.64 302.221C1181.48 293.67 1179.87 283.675 1179.87 272.293C1179.87 256.357 1182.76 242.198 1188.55 229.983C1194.33 217.712 1202.15 207.384 1212.06 199C1221.96 190.616 1233.43 184.23 1246.49 179.955C1259.56 175.679 1273.43 174.065 1288 174.065C1298.44 174.065 1308.56 174.569 1318.47 176.568C1328.38 178.567 1337.81 181.121 1346.7 184.286C1355.64 187.451 1364.1 191.004 1372.08 194.947C1380.06 198.944 1387.18 202.942 1393.5 206.94L1364.21 265.074L1364.15 264.852Z" fill="white"/>
<path d="M1462.57 482.938V173.5H1534.16V420.168H1684.3V482.938H1462.57Z" fill="white"/>
<path d="M1715.25 482.938L1834.39 173.5H1892.43L2011.12 482.938H1935.17L1911.19 413.658H1814.73L1791.15 482.938H1715.2H1715.25ZM1863.24 249.289L1826.17 364.359H1899.06L1863.3 249.289H1863.24Z" fill="white"/>
<path d="M2086.22 173.5L2159.56 393.169L2231.6 173.5H2307.1L2189.26 482.938H2129.47L2010.78 173.5H2086.28H2086.22Z" fill="white"/>
<path d="M2361.63 482.938V173.5H2433.21V482.938H2361.63Z" fill="white"/>
<path d="M2500.5 325.863C2500.5 307.61 2503.56 289.358 2509.69 271.217C2515.82 253.077 2524.75 236.883 2536.48 222.582C2548.21 208.281 2562.54 196.762 2579.46 187.859C2596.39 179.011 2615.4 174.065 2637 174.065C2662.33 174.065 2684.54 180.68 2703.23 192.978C2721.87 205.276 2735.73 221.247 2744.81 240.946L2694.46 278.674C2691.5 270.661 2687.81 264.039 2683.24 258.753C2678.73 253.466 2673.79 249.181 2668.45 245.898C2663.1 242.615 2657.6 240.334 2651.83 239.054C2646.12 237.774 2640.72 237.106 2635.64 237.106C2623.9 237.106 2613.78 239.833 2605.27 245.231C2596.75 250.684 2589.69 257.64 2584.08 266.209C2578.48 274.779 2574.27 284.517 2571.52 295.368C2568.72 306.219 2567.32 317.237 2567.32 328.367C2567.32 340.386 2568.98 351.961 2572.3 363.09C2575.62 374.22 2580.29 384.069 2586.32 392.639C2592.34 401.208 2599.56 407.997 2608.12 413.005C2616.64 418.013 2626.14 420.518 2636.52 420.518C2641.87 420.518 2647.37 419.738 2653.13 418.18C2658.84 416.622 2664.4 414.174 2669.74 410.891C2675.09 407.608 2679.87 403.323 2684.13 398.036C2688.38 392.75 2691.86 386.239 2694.51 378.56L2748.5 412.393C2744.24 423.523 2738.01 433.539 2729.92 442.387C2721.76 451.235 2712.52 458.691 2702.14 464.646C2691.76 470.6 2680.75 475.219 2669.17 478.335C2657.6 481.451 2646.18 483.065 2635.01 483.065C2615.29 483.065 2597.22 478.557 2580.87 469.543C2564.51 460.528 2550.34 448.619 2538.5 433.762C2526.67 418.904 2517.37 402.043 2510.73 383.179C2504.08 364.314 2500.76 345.172 2500.76 325.751L2500.5 325.863Z" fill="white"/>
<path d="M1411.96 930.938V745.683L1344.74 880.337H1306.31L1239.09 745.683V930.938H1167.5V621.5H1245.21L1325.52 783.209L1406.29 621.5H1483.55V930.938H1411.96Z" fill="white"/>
<path d="M1817.39 868.225V930.995H1599.62V621.557H1813.48V684.328H1671.21V744.494H1793.41V802.454H1671.21V868.281H1817.45L1817.39 868.225Z" fill="white"/>
<path d="M1918.67 930.938V621.5H2034.36C2059.98 621.5 2082.37 625.575 2101.58 633.726C2120.79 641.877 2136.84 652.914 2149.81 666.838C2162.79 680.761 2172.49 697.119 2179.06 715.854C2185.64 734.589 2188.87 754.569 2188.87 775.795C2188.87 799.341 2185.24 820.623 2177.93 839.641C2170.67 858.659 2160.24 874.96 2146.75 888.431C2133.21 901.959 2116.94 912.43 2097.9 919.788C2078.85 927.203 2057.65 930.882 2034.42 930.882H1918.73L1918.67 930.938ZM2115.92 775.795C2115.92 762.154 2114.11 749.701 2110.48 738.551C2106.85 727.344 2101.52 717.722 2094.55 709.571C2087.58 701.421 2078.96 695.195 2068.82 690.836C2058.62 686.478 2047.11 684.271 2034.36 684.271H1990.26V868.168H2034.36C2047.45 868.168 2059.07 865.847 2069.27 861.206C2079.48 856.565 2087.98 850.112 2094.78 841.791C2101.58 833.471 2106.85 823.792 2110.48 812.585C2114.11 801.378 2115.92 789.152 2115.92 775.738V775.795Z" fill="white"/>
<path d="M2288.34 930.938V621.5H2359.93V930.938H2288.34Z" fill="white"/>
<path d="M2445.77 931.235L2567.75 621.665H2627.18L2748.71 931.235H2670.94L2646.39 861.926H2547.62L2523.47 931.235H2445.71H2445.77ZM2597.29 697.543L2559.34 812.662H2633.97L2597.35 697.543H2597.29Z" fill="white"/>
<g filter="url(#filter1_d_30_978)">
<path d="M991 1094.17C922.403 1066.34 849.72 1052.2 776.704 1052.2C741.26 1052.2 705.682 1055.52 670.47 1062.25L669.108 1062.52C669.108 1062.52 698.307 959.866 679.14 892.455C642.931 765.189 324.86 552.316 324.86 552.316C324.86 552.316 125.147 407.028 49.7404 311.925C-3.80862 244.341 13.0002 10.5 13.0002 10.5C81.5973 38.3308 154.28 52.4714 227.296 52.4714C262.74 52.4714 298.318 49.1442 333.53 42.4205L334.892 42.1432C334.892 42.1432 305.693 144.802 324.86 212.212C361.069 339.478 679.14 552.351 679.14 552.351C679.14 552.351 878.853 697.639 954.26 792.742C1007.81 860.326 991 1094.17 991 1094.17Z" fill="oklch(0.533 0.2017 27.59)"/>
<path d="M993.5 508.89V42.109H508.835C508.835 42.109 434.259 197.691 993.5 508.89Z" fill="oklch(0.533 0.2017 27.59)"/>
<path d="M10.502 595.743V1062.52H495.167C495.167 1062.52 569.743 906.942 10.502 595.743Z" fill="oklch(0.533 0.2017 27.59)"/>
</g>
</g>
<defs>
<filter id="filter0_d_30_978" x="0.5" y="0.5" width="2759" height="1104" filterUnits="userSpaceOnUse" color-interpolation-filters="sRGB">
<feFlood flood-opacity="0" result="BackgroundImageFix"/>
<feColorMatrix in="SourceAlpha" type="matrix" values="0 0 0 0 0 0 0 0 0 0 0 0 0 0 0 0 0 0 127 0" result="hardAlpha"/>
<feOffset/>
<feGaussianBlur stdDeviation="5"/>
<feComposite in2="hardAlpha" operator="out"/>
<feColorMatrix type="matrix" values="0 0 0 0 0 0 0 0 0 0 0 0 0 0 0 0 0 0 0.25 0"/>
<feBlend mode="normal" in2="BackgroundImageFix" result="effect1_dropShadow_30_978"/>
<feBlend mode="normal" in="SourceGraphic" in2="effect1_dropShadow_30_978" result="shape"/>
</filter>
<filter id="filter1_d_30_978" x="0.5" y="0.5" width="1003" height="1104" filterUnits="userSpaceOnUse" color-interpolation-filters="sRGB">
<feFlood flood-opacity="0" result="BackgroundImageFix"/>
<feColorMatrix in="SourceAlpha" type="matrix" values="0 0 0 0 0 0 0 0 0 0 0 0 0 0 0 0 0 0 127 0" result="hardAlpha"/>
<feOffset/>
<feGaussianBlur stdDeviation="5"/>
<feComposite in2="hardAlpha" operator="out"/>
<feColorMatrix type="matrix" values="0 0 0 0 0 0 0 0 0 0 0 0 0 0 0 0 0 0 0.25 0"/>
<feBlend mode="normal" in2="BackgroundImageFix" result="effect1_dropShadow_30_978"/>
<feBlend mode="normal" in="SourceGraphic" in2="effect1_dropShadow_30_978" result="shape"/>
</filter>
</defs>
</svg>
